<?xml version="1.0" encoding="UTF-8"?>
<svg width="249" height="249" version="1.1" viewBox="0 0 249 249" xmlns="http://www.w3.org/2000/svg">
  <g transform="translate(.062254 75.01)" class="jp-icon3 jp-icon-selectable" fill="#fd0000">
    <path transform="scale(.75)"
      d="m255.62 0.41211c-2.5833 0-5.11 0.16081-7.584 0.50977-7.7083 1.1302-14.005 7.1406-15.109 14.875-0.38021 2.7135-0.59375 5.459-0.59375 8.3027v83.807c0 2.8229 0.21354 5.5729 0.59375 8.2812 1.1042 7.7604 7.401 13.709 15.109 14.865 2.474 0.34896 5.0006 0.50977 7.584 0.50977h52.625c2.5833 0 5.0886-0.16081 7.5938-0.50977 7.6979-1.1562 13.99-7.1048 15.078-14.865 0.40104-2.7083 0.5996-5.4583 0.5996-8.2812l0.0254-0.0156v-45.412h-50.865v21.809h20.234v18h-37.941v-72.559h37.941v15.771h30.631v-21.4h-0.0254c0-2.8438-0.19857-5.5892-0.5996-8.3027-1.0886-7.7344-7.3802-13.745-15.078-14.875-2.5052-0.34896-5.0104-0.50977-7.5938-0.50977zm-147.57 0.93164 41.252 71.16v59.059h35.992v-59.121l41.252-71.098h-32.475l-26.787 46.135-26.797-46.135zm-39.182 0.0058594v100.94h-37.979v-24.621h-30.609v30.225l0.019531 0.0156c0 2.8229 0.17708 5.5729 0.57812 8.2812 1.1146 7.7604 7.4277 13.709 15.1 14.865 2.474 0.34896 4.9948 0.50977 7.5781 0.50977h52.619c2.5937 0 5.1458-0.16081 7.5938-0.50977 7.6979-1.1562 14-7.1048 15.109-14.865 0.375-2.7083 0.60547-5.4583 0.60547-8.2812v-106.56z" />
  </g>
</svg>
